{"accessors":[{"bufferView":0,"byteOffset":0,"componentType":5126,"count":360,"max":[0.0299999993294477,0.0299999993294477,0.0299999993294477],"min":[-0.02999999932945,-0.02999999932945,-0.02999999932945],"normalized":false,"type":"VEC3"},{"bufferView":1,"byteOffset":0,"componentType":5126,"count":360,"max":[1,0.109320349991322,1,1],"min":[-1,-0.15194955468178,-1,1],"normalized":false,"type":"VEC4"},{"bufferView":2,"byteOffset":0,"componentType":5126,"count":360,"max":[1,0.963618636131287,1],"min":[-1,-0.9636213183403,-1],"normalized":false,"type":"VEC3"},{"bufferView":3,"byteOffset":0,"componentType":5126,"count":360,"max":[1,1],"min":[0,0],"normalized":false,"type":"VEC2"},{"bufferView":4,"byteOffset":0,"componentType":5123,"count":360,"max":[359],"min":[0],"normalized":false,"type":"SCALAR"}],"asset":{"generator":"Godot Engine v4.3.stable.mono.official@77dcf97d82cbfe4e4615475fa52ca03da645dbd8","version":"2.0"},"bufferViews":[{"buffer":0,"byteLength":4320,"byteOffset":0,"byteStride":12,"target":34962},{"buffer":0,"byteLength":5760,"byteOffset":4320,"byteStride":16,"target":34962},{"buffer":0,"byteLength":4320,"byteOffset":10080,"byteStride":12,"target":34962},{"buffer":0,"byteLength":2880,"byteOffset":14400,"byteStride":8,"target":34962},{"buffer":0,"byteLength":720,"byteOffset":17280,"target":34963}],"buffers":[{"byteLength":18000,"uri":"acorn0.bin"}],"extensions":{"OMI_physics_shape":{"shapes":[{"sphere":{"radius":0.0299999993294477},"type":"sphere"}]}},"extensionsUsed":["GODOT_single_root","OMI_physics_body","OMI_physics_shape"],"materials":[{"extensions":{},"pbrMetallicRoughness":{"baseColorFactor":[0.99999988079071,0.99999988079071,0.99999988079071,1],"metallicFactor":0,"roughnessFactor":1}}],"meshes":[{"extras":{"targetNames":[]},"primitives":[{"attributes":{"NORMAL":2,"POSITION":0,"TANGENT":1,"TEXCOORD_0":3},"indices":4,"material":0,"mode":4}]}],"nodes":[{"children":[1],"name":"Acorn"},{"children":[2,3],"extensions":{"OMI_physics_body":{"motion":{"type":"dynamic"}}},"name":"RigidBody3D","translation":[0,0.03025639988482,0]},{"extensions":{"OMI_physics_body":{"collider":{"shape":0}}},"name":"CollisionShape3D","translation":[0,-0.00012163400243,0]},{"mesh":0,"name":"CSGSphere3D2"}],"scene":0,"scenes":[{"nodes":[0]}]}